<svg width="173" height="65" viewBox="0 0 173 65" fill="none" xmlns="http://www.w3.org/2000/svg">
<path d="M77.6044 57.3999V39.2559H86.1062C88.2835 39.2559 89.9424 39.6879 91.0829 40.5519C92.2233 41.3986 92.7936 42.5391 92.7936 43.9733C92.7936 44.941 92.5689 45.7705 92.1197 46.4617C91.6704 47.1356 91.0656 47.6626 90.3053 48.0428C89.5622 48.4057 88.7501 48.5871 87.8688 48.5871L88.3353 47.654C89.3549 47.654 90.2707 47.8441 91.0829 48.2242C91.895 48.5871 92.5344 49.1228 93.0009 49.8313C93.4848 50.5397 93.7267 51.421 93.7267 52.4751C93.7267 54.0303 93.1305 55.2399 91.9382 56.1039C90.7459 56.9679 88.9747 57.3999 86.6246 57.3999H77.6044ZM80.974 54.7561H86.4173C87.6787 54.7561 88.6464 54.5487 89.3203 54.134C89.9942 53.7193 90.3312 53.054 90.3312 52.1381C90.3312 51.2396 89.9942 50.5829 89.3203 50.1682C88.6464 49.7362 87.6787 49.5202 86.4173 49.5202H80.7148V46.9023H85.7433C86.9184 46.9023 87.8169 46.6949 88.439 46.2802C89.0784 45.8655 89.3981 45.2434 89.3981 44.414C89.3981 43.5673 89.0784 42.9365 88.439 42.5218C87.8169 42.1071 86.9184 41.8997 85.7433 41.8997H80.974V54.7561ZM105.825 57.5813C104.408 57.5813 103.146 57.2789 102.04 56.6741C100.934 56.0521 100.062 55.2053 99.4224 54.134C98.783 53.0626 98.4634 51.8444 98.4634 50.4793C98.4634 49.0969 98.783 47.8786 99.4224 46.8245C100.062 45.7532 100.934 44.9151 102.04 44.3103C103.146 43.7055 104.408 43.4031 105.825 43.4031C107.259 43.4031 108.529 43.7055 109.635 44.3103C110.758 44.9151 111.631 45.7445 112.253 46.7986C112.892 47.8527 113.212 49.0796 113.212 50.4793C113.212 51.8444 112.892 53.0626 112.253 54.134C111.631 55.2053 110.758 56.0521 109.635 56.6741C108.529 57.2789 107.259 57.5813 105.825 57.5813ZM105.825 54.8079C106.62 54.8079 107.328 54.6351 107.95 54.2895C108.572 53.9439 109.056 53.4428 109.402 52.7861C109.764 52.1295 109.946 51.3605 109.946 50.4793C109.946 49.5807 109.764 48.8117 109.402 48.1724C109.056 47.5157 108.572 47.0146 107.95 46.669C107.328 46.3234 106.628 46.1506 105.851 46.1506C105.056 46.1506 104.347 46.3234 103.725 46.669C103.12 47.0146 102.636 47.5157 102.274 48.1724C101.911 48.8117 101.729 49.5807 101.729 50.4793C101.729 51.3605 101.911 52.1295 102.274 52.7861C102.636 53.4428 103.12 53.9439 103.725 54.2895C104.347 54.6351 105.047 54.8079 105.825 54.8079Z" fill="white"/>
<path d="M126.756 43.4031C127.862 43.4031 128.847 43.6191 129.711 44.0511C130.592 44.4831 131.283 45.1484 131.784 46.0469C132.285 46.9282 132.536 48.0687 132.536 49.4684V57.3999H129.296V49.8831C129.296 48.6562 129.002 47.7404 128.415 47.1356C127.845 46.5308 127.041 46.2284 126.004 46.2284C125.244 46.2284 124.57 46.3839 123.982 46.6949C123.395 47.006 122.937 47.4725 122.609 48.0946C122.298 48.6994 122.142 49.4684 122.142 50.4015V57.3999H118.902V38.1673H122.142V47.2911L121.442 46.1506C121.926 45.2693 122.626 44.5954 123.542 44.1289C124.475 43.645 125.546 43.4031 126.756 43.4031ZM147.766 57.3999V54.6005L147.584 54.0044V49.1055C147.584 48.1551 147.299 47.4207 146.729 46.9023C146.159 46.3666 145.295 46.0988 144.137 46.0988C143.359 46.0988 142.59 46.2197 141.83 46.4617C141.087 46.7036 140.456 47.0405 139.938 47.4725L138.668 45.1138C139.411 44.5436 140.292 44.1202 141.312 43.8437C142.349 43.55 143.42 43.4031 144.526 43.4031C146.53 43.4031 148.077 43.8869 149.166 44.8546C150.271 45.805 150.824 47.2825 150.824 49.2869V57.3999H147.766ZM143.411 57.5813C142.374 57.5813 141.467 57.4085 140.69 57.0629C139.912 56.7001 139.307 56.2076 138.875 55.5855C138.461 54.9461 138.253 54.229 138.253 53.4341C138.253 52.6565 138.435 51.9567 138.798 51.3346C139.178 50.7125 139.791 50.2201 140.638 49.8572C141.485 49.4943 142.608 49.3129 144.007 49.3129H148.025V51.4642H144.241C143.135 51.4642 142.392 51.6457 142.012 52.0085C141.631 52.3541 141.441 52.7861 141.441 53.3045C141.441 53.8921 141.675 54.3586 142.141 54.7042C142.608 55.0498 143.256 55.2226 144.085 55.2226C144.88 55.2226 145.589 55.0412 146.211 54.6783C146.85 54.3154 147.308 53.7797 147.584 53.0713L148.129 55.0153C147.818 55.8274 147.256 56.4581 146.444 56.9074C145.649 57.3567 144.638 57.5813 143.411 57.5813ZM157.575 57.3999V43.5586H160.815V57.3999H157.575ZM159.207 41.2777C158.603 41.2777 158.102 41.0876 157.704 40.7074C157.324 40.3273 157.134 39.8693 157.134 39.3337C157.134 38.7807 157.324 38.3228 157.704 37.9599C158.102 37.5797 158.603 37.3897 159.207 37.3897C159.812 37.3897 160.305 37.5711 160.685 37.934C161.082 38.2796 161.281 38.7202 161.281 39.2559C161.281 39.8261 161.091 40.31 160.711 40.7074C160.331 41.0876 159.83 41.2777 159.207 41.2777ZM168.696 57.5813C168.108 57.5813 167.607 57.3826 167.192 56.9852C166.778 56.5705 166.57 56.0521 166.57 55.43C166.57 54.7733 166.778 54.2549 167.192 53.8748C167.607 53.4773 168.108 53.2786 168.696 53.2786C169.283 53.2786 169.784 53.4773 170.199 53.8748C170.614 54.2549 170.821 54.7733 170.821 55.43C170.821 56.0521 170.614 56.5705 170.199 56.9852C169.784 57.3826 169.283 57.5813 168.696 57.5813Z" fill="#1C72DC"/>
<circle cx="32.4" cy="32.4" r="32.4" fill="url(#paint0_linear_173_982)"/>
<path d="M48.6 38.8802V42.1202H45.36C43.092 42.1202 40.824 41.4722 38.88 40.5002C34.83 42.6062 29.97 42.6062 25.92 40.5002C23.976 41.4722 21.708 42.1202 19.44 42.1202H16.2V38.8802H19.44C21.708 38.8802 23.976 38.0702 25.92 36.7742C29.808 39.5282 34.992 39.5282 38.88 36.7742C40.824 38.0702 43.092 38.8802 45.36 38.8802H48.6ZM21.5136 35.3C22.3884 35.0408 23.2794 34.6358 24.1218 34.085L25.92 32.8538C27.0378 29.1602 27.1836 24.7376 25.2558 19.667C32.319 20.882 38.7018 26.9732 41.0994 34.328C42.3144 35.057 43.5942 35.4944 44.8092 35.5916C42.5088 24.9482 32.9994 16.2002 22.68 16.2002C22.113 16.2002 21.5946 16.4918 21.303 16.9616C21.0114 17.4476 20.979 18.047 21.2382 18.5492C24.7536 25.58 23.6682 31.25 21.5136 35.3ZM38.88 43.2542C34.992 46.0082 29.808 46.0082 25.92 43.2542C23.976 44.5502 21.708 45.3602 19.44 45.3602H16.2V48.6002H19.44C21.708 48.6002 23.976 47.9522 25.92 46.9802C29.97 49.0862 34.83 49.0862 38.88 46.9802C40.824 47.9522 43.092 48.6002 45.36 48.6002H48.6V45.3602H45.36C43.092 45.3602 40.824 44.5502 38.88 43.2542Z" fill="white"/>
<ellipse cx="32.13" cy="40.2299" rx="1.35" ry="1.35" fill="white"/>
<defs>
<linearGradient id="paint0_linear_173_982" x1="32.4" y1="0" x2="32.4" y2="64.8" gradientUnits="userSpaceOnUse">
<stop stop-color="#3177CC"/>
<stop offset="1" stop-color="#75ACC4" stop-opacity="0.3"/>
</linearGradient>
</defs>
</svg>
